<?xml version="1.0" encoding="UTF-8" standalone="no"?>
<!DOCTYPE svg PUBLIC "-//W3C//DTD SVG 1.1//EN" "http://www.w3.org/Graphics/SVG/1.1/DTD/svg11.dtd">
<svg width="100%" height="100%" viewBox="0 0 301 304" version="1.1" xmlns="http://www.w3.org/2000/svg" xmlns:xlink="http://www.w3.org/1999/xlink" xml:space="preserve" xmlns:serif="http://www.serif.com/" style="fill-rule:evenodd;clip-rule:evenodd;stroke-linejoin:round;stroke-miterlimit:2;">
    <g transform="matrix(1,0,0,1.247422,-387.192489,-3527.175534)">
        <g transform="matrix(1.695943,0,0,1.371988,17.381095,2203.233224)">
            <g transform="matrix(3.541016,0,0,3.541016,-576.90154,-129.206594)">
                <path d="M269.5,165L229.5,165C226.739,165 224.5,167.239 224.5,170L224.5,210C224.5,212.761 226.739,215 229.5,215L269.5,215C272.262,215 274.5,212.761 274.5,210L274.5,170C274.5,167.239 272.262,165 269.5,165Z" style="fill:rgb(217,130,242);fill-rule:nonzero;"/>
            </g>
        </g>
        <g transform="matrix(8.280454,0,0,6.638052,404.839229,2839.928923)">
            <path d="M29,24L19.86,24C19.495,22.601 18.399,21.505 17,21.14L17,19L22.51,19C24.831,19.044 26.934,17.588 27.71,15.4C27.902,14.839 28,14.251 28,13.658C28,10.959 25.968,8.656 23.29,8.32C21.919,5.599 19.107,3.887 16.06,3.92C12.407,4.129 9.348,6.839 8.7,10.44C6.801,10.439 5.068,11.547 4.27,13.27C3.905,14.205 3.905,15.245 4.27,16.18C5.126,17.989 7.001,19.107 9,19L15,19L15,21.14C13.601,21.505 12.505,22.601 12.14,24L3,24C2.451,24 2,24.451 2,25C2,25.549 2.451,26 3,26L12.14,26C12.612,27.737 14.2,28.951 16,28.951C17.8,28.951 19.388,27.737 19.86,26L29,26C29.549,26 30,25.549 30,25C30,24.451 29.549,24 29,24ZM9.46,17C8.135,17.253 6.789,16.627 6.13,15.45C5.965,14.981 5.965,14.469 6.13,14C6.691,12.957 7.819,12.34 9,12.43L9.43,12.43C9.696,12.459 9.963,12.379 10.17,12.21C10.373,12.034 10.502,11.787 10.53,11.52C10.738,8.536 13.127,6.13 16.11,5.9C18.556,5.893 20.773,7.382 21.69,9.65C21.846,10.019 22.21,10.26 22.61,10.26C24.456,10.265 25.972,11.784 25.972,13.63C25.972,14.011 25.907,14.39 25.78,14.75C25.277,16.113 23.963,17.018 22.51,17L9.46,17ZM16,27C14.903,27 14,26.097 14,25C14,23.903 14.903,23 16,23C17.097,23 18,23.903 18,25C18,26.097 17.097,27 16,27Z" style="fill-rule:nonzero;"/>
        </g>
    </g>
</svg>
