<?xml version="1.0" encoding="UTF-8" standalone="no"?>
<!DOCTYPE svg PUBLIC "-//W3C//DTD SVG 1.1//EN" "http://www.w3.org/Graphics/SVG/1.1/DTD/svg11.dtd">
<svg width="100%" height="100%" viewBox="0 0 1520 304" version="1.1" xmlns="http://www.w3.org/2000/svg" xmlns:xlink="http://www.w3.org/1999/xlink" xml:space="preserve" xmlns:serif="http://www.serif.com/" style="fill-rule:evenodd;clip-rule:evenodd;stroke-linejoin:round;stroke-miterlimit:2;">
    <g transform="matrix(1,0,0,1.121032,-387.192489,-3527.175534)">
        <g transform="matrix(1.695943,0,0,1.526671,17.381095,2451.635241)">
            <g transform="matrix(3.541016,0,0,3.541016,-576.90154,-129.206594)">
                <path d="M269.5,165L229.5,165C226.739,165 224.5,167.239 224.5,170L224.5,210C224.5,212.761 226.739,215 229.5,215L269.5,215C272.262,215 274.5,212.761 274.5,210L274.5,170C274.5,167.239 272.262,165 269.5,165Z" style="fill:rgb(217,130,242);fill-rule:nonzero;"/>
            </g>
        </g>
        <g transform="matrix(0.96143,0,0,0.864806,-53.641067,456.188586)">
            <path d="M944.599,3378.965C935.89,3378.965 927.84,3377.59 920.448,3374.84C913.057,3372.089 906.706,3368.308 901.397,3363.495C896.087,3358.682 892.076,3353.066 889.364,3346.649L909.189,3337.481C911.443,3343.288 915.568,3348.215 921.566,3352.264C927.563,3356.313 935.126,3358.338 944.256,3358.338C951.284,3358.338 957.663,3356.991 963.393,3354.298C969.123,3351.605 973.697,3347.642 977.116,3342.409C980.535,3337.176 982.244,3330.797 982.244,3323.272L982.244,3295.654L985.968,3299.608C981.69,3308.011 975.559,3314.448 967.576,3318.917C959.592,3323.386 950.749,3325.621 941.047,3325.621C929.549,3325.621 919.216,3322.899 910.049,3317.456C900.881,3312.013 893.671,3304.612 888.419,3295.253C883.167,3285.894 880.54,3275.447 880.54,3263.911C880.54,3252.26 883.167,3241.804 888.419,3232.54C893.671,3223.277 900.833,3215.934 909.906,3210.509C918.978,3205.085 929.301,3202.373 940.875,3202.373C950.577,3202.373 959.335,3204.541 967.146,3208.876C974.958,3213.212 981.232,3219.219 985.968,3226.897L982.817,3232.569L982.817,3205.123L1003.731,3205.123L1003.731,3323.272C1003.731,3333.929 1001.2,3343.46 996.139,3351.863C991.078,3360.267 984.097,3366.885 975.196,3371.717C966.296,3376.549 956.097,3378.965 944.599,3378.965ZM942.938,3304.936C950.348,3304.936 956.995,3303.112 962.877,3299.464C968.76,3295.816 973.458,3290.889 976.973,3284.681C980.487,3278.474 982.244,3271.589 982.244,3264.026C982.244,3256.462 980.477,3249.567 976.944,3243.341C973.411,3237.115 968.703,3232.168 962.82,3228.501C956.938,3224.834 950.31,3223 942.938,3223C935.413,3223 928.623,3224.834 922.568,3228.501C916.514,3232.168 911.768,3237.086 908.33,3243.255C904.892,3249.424 903.173,3256.348 903.173,3264.026C903.173,3271.551 904.892,3278.417 908.33,3284.624C911.768,3290.831 916.485,3295.769 922.482,3299.436C928.48,3303.103 935.298,3304.936 942.938,3304.936Z" style="fill:white;fill-rule:nonzero;"/>
            <path d="M1093.517,3331.293C1081.599,3331.293 1070.951,3328.467 1061.573,3322.813C1052.195,3317.16 1044.832,3309.425 1039.485,3299.608C1034.137,3289.791 1031.463,3278.732 1031.463,3266.432C1031.463,3254.018 1034.108,3243.007 1039.399,3233.4C1044.689,3223.793 1051.871,3216.22 1060.943,3210.681C1070.015,3205.142 1080.223,3202.373 1091.568,3202.373C1100.698,3202.373 1108.825,3203.997 1115.949,3207.243C1123.073,3210.49 1129.127,3214.912 1134.112,3220.508C1139.097,3226.104 1142.907,3232.435 1145.543,3239.502C1148.179,3246.569 1149.497,3253.941 1149.497,3261.619C1149.497,3263.376 1149.411,3265.267 1149.239,3267.292C1149.067,3269.316 1148.79,3271.283 1148.408,3273.193L1047.105,3273.193L1047.105,3254.858L1136.146,3254.858L1125.89,3262.994C1127.303,3255.049 1126.568,3247.944 1123.684,3241.679C1120.8,3235.415 1116.541,3230.449 1110.906,3226.782C1105.272,3223.115 1098.826,3221.281 1091.568,3221.281C1084.349,3221.281 1077.769,3223.134 1071.829,3226.839C1065.889,3230.545 1061.277,3235.768 1057.992,3242.51C1054.707,3249.252 1053.408,3257.303 1054.096,3266.661C1053.37,3275.753 1054.755,3283.688 1058.25,3290.469C1061.745,3297.249 1066.634,3302.501 1072.918,3306.225C1079.202,3309.95 1086.106,3311.812 1093.631,3311.812C1101.92,3311.812 1108.901,3309.902 1114.574,3306.082C1120.246,3302.262 1124.82,3297.411 1128.296,3291.529L1146.173,3300.639C1143.729,3306.292 1139.956,3311.44 1134.857,3316.081C1129.757,3320.722 1123.703,3324.418 1116.694,3327.168C1109.684,3329.918 1101.958,3331.293 1093.517,3331.293Z" style="fill:white;fill-rule:nonzero;"/>
            <path d="M1234.24,3331.293C1222.322,3331.293 1211.674,3328.467 1202.297,3322.813C1192.919,3317.16 1185.556,3309.425 1180.208,3299.608C1174.86,3289.791 1172.187,3278.732 1172.187,3266.432C1172.187,3254.018 1174.832,3243.007 1180.122,3233.4C1185.413,3223.793 1192.594,3216.22 1201.666,3210.681C1210.738,3205.142 1220.947,3202.373 1232.292,3202.373C1241.421,3202.373 1249.548,3203.997 1256.672,3207.243C1263.796,3210.49 1269.851,3214.912 1274.836,3220.508C1279.821,3226.104 1283.631,3232.435 1286.267,3239.502C1288.902,3246.569 1290.22,3253.941 1290.22,3261.619C1290.22,3263.376 1290.134,3265.267 1289.962,3267.292C1289.79,3269.316 1289.513,3271.283 1289.131,3273.193L1187.829,3273.193L1187.829,3254.858L1276.87,3254.858L1266.613,3262.994C1268.027,3255.049 1267.291,3247.944 1264.407,3241.679C1261.523,3235.415 1257.264,3230.449 1251.63,3226.782C1245.996,3223.115 1239.55,3221.281 1232.292,3221.281C1225.072,3221.281 1218.493,3223.134 1212.553,3226.839C1206.613,3230.545 1202.001,3235.768 1198.715,3242.51C1195.43,3249.252 1194.132,3257.303 1194.819,3266.661C1194.093,3275.753 1195.478,3283.688 1198.973,3290.469C1202.468,3297.249 1207.358,3302.501 1213.642,3306.225C1219.925,3309.95 1226.83,3311.812 1234.355,3311.812C1242.644,3311.812 1249.625,3309.902 1255.297,3306.082C1260.97,3302.262 1265.544,3297.411 1269.02,3291.529L1286.897,3300.639C1284.452,3306.292 1280.68,3311.44 1275.581,3316.081C1270.481,3320.722 1264.427,3324.418 1257.417,3327.168C1250.408,3329.918 1242.682,3331.293 1234.24,3331.293Z" style="fill:white;fill-rule:nonzero;"/>
            <path d="M1317.952,3328.543L1317.952,3155.045L1339.439,3155.045L1339.439,3273.938L1330.73,3272.047L1396.278,3205.123L1423.552,3205.123L1376.11,3254.686L1426.761,3328.543L1401.55,3328.543L1355.139,3261.619L1368.374,3261.046L1332.506,3298.634L1339.439,3282.991L1339.439,3328.543L1317.952,3328.543Z" style="fill:white;fill-rule:nonzero;"/>
            <path d="M1486.064,3328.543L1486.064,3155.045L1499.816,3155.045L1499.816,3231.48L1496.492,3230.449C1499.243,3222.427 1504.17,3216.029 1511.275,3211.254C1518.38,3206.479 1526.631,3204.092 1536.028,3204.092C1544.432,3204.092 1552.09,3206.002 1559.004,3209.822C1565.918,3213.642 1571.438,3218.951 1575.563,3225.751C1579.689,3232.55 1581.752,3240.342 1581.752,3249.128L1581.752,3328.543L1568,3328.543L1568,3253.024C1568,3245.614 1566.51,3239.292 1563.531,3234.059C1560.551,3228.826 1556.502,3224.777 1551.384,3221.912C1546.265,3219.047 1540.497,3217.614 1534.08,3217.614C1527.204,3217.614 1521.188,3219.219 1516.031,3222.427C1510.874,3225.636 1506.882,3230.067 1504.056,3235.72C1501.229,3241.374 1499.816,3247.906 1499.816,3255.316L1499.816,3328.543L1486.064,3328.543Z" style="fill:rgb(217,130,242);fill-rule:nonzero;"/>
            <path d="M1660.25,3331.293C1651.999,3331.293 1644.397,3329.402 1637.445,3325.621C1630.493,3321.839 1624.935,3316.453 1620.771,3309.463C1616.608,3302.472 1614.526,3294.164 1614.526,3284.538L1614.526,3206.842L1628.278,3206.842L1628.278,3283.507C1628.278,3290.612 1629.767,3296.743 1632.747,3301.899C1635.726,3307.056 1639.794,3310.991 1644.951,3313.703C1650.108,3316.415 1655.857,3317.771 1662.198,3317.771C1669.226,3317.771 1675.319,3316.167 1680.476,3312.958C1685.633,3309.749 1689.586,3305.299 1692.337,3299.608C1695.087,3293.916 1696.462,3287.403 1696.462,3280.069L1696.462,3206.842L1710.213,3206.842L1710.213,3328.543L1696.462,3328.543L1696.462,3303.905L1699.785,3304.936C1697.111,3312.882 1692.241,3319.261 1685.174,3324.074C1678.108,3328.887 1669.799,3331.293 1660.25,3331.293Z" style="fill:rgb(217,130,242);fill-rule:nonzero;"/>
            <path d="M1808.995,3331.293C1797.917,3331.293 1787.986,3328.581 1779.2,3323.157C1770.414,3317.733 1763.844,3310.322 1759.49,3300.925L1761.782,3297.717L1761.782,3328.543L1748.03,3328.543L1748.03,3155.045L1761.782,3155.045L1761.782,3237.669L1759.49,3233.314C1764.15,3224.452 1770.796,3217.366 1779.429,3212.056C1788.062,3206.747 1797.917,3204.092 1808.995,3204.092C1820.455,3204.092 1830.692,3206.861 1839.707,3212.4C1848.722,3217.939 1855.846,3225.502 1861.079,3235.09C1866.312,3244.678 1868.929,3255.546 1868.929,3267.693C1868.929,3279.763 1866.312,3290.593 1861.079,3300.181C1855.846,3309.768 1848.722,3317.351 1839.707,3322.928C1830.692,3328.505 1820.455,3331.293 1808.995,3331.293ZM1808.537,3317.542C1817.322,3317.542 1825.153,3315.364 1832.029,3311.01C1838.904,3306.655 1844.329,3300.715 1848.301,3293.19C1852.274,3285.665 1854.26,3277.166 1854.26,3267.693C1854.26,3258.143 1852.274,3249.625 1848.301,3242.138C1844.329,3234.651 1838.904,3228.73 1832.029,3224.375C1825.153,3220.021 1817.322,3217.844 1808.537,3217.844C1799.827,3217.844 1791.958,3220.021 1784.93,3224.375C1777.901,3228.73 1772.343,3234.651 1768.256,3242.138C1764.169,3249.625 1762.125,3258.143 1762.125,3267.693C1762.125,3277.166 1764.169,3285.665 1768.256,3293.19C1772.343,3300.715 1777.901,3306.655 1784.93,3311.01C1791.958,3315.364 1799.827,3317.542 1808.537,3317.542Z" style="fill:rgb(217,130,242);fill-rule:nonzero;"/>
            <rect x="1910.871" y="3296.456" width="30.368" height="32.087" style="fill:rgb(217,130,242);fill-rule:nonzero;"/>
        </g>
        <g transform="matrix(8.280454,0,0,7.386454,404.839229,3160.114759)">
            <path d="M29,24L19.86,24C19.495,22.601 18.399,21.505 17,21.14L17,19L22.51,19C24.831,19.044 26.934,17.588 27.71,15.4C27.902,14.839 28,14.251 28,13.658C28,10.959 25.968,8.656 23.29,8.32C21.919,5.599 19.107,3.887 16.06,3.92C12.407,4.129 9.348,6.839 8.7,10.44C6.801,10.439 5.068,11.547 4.27,13.27C3.905,14.205 3.905,15.245 4.27,16.18C5.126,17.989 7.001,19.107 9,19L15,19L15,21.14C13.601,21.505 12.505,22.601 12.14,24L3,24C2.451,24 2,24.451 2,25C2,25.549 2.451,26 3,26L12.14,26C12.612,27.737 14.2,28.951 16,28.951C17.8,28.951 19.388,27.737 19.86,26L29,26C29.549,26 30,25.549 30,25C30,24.451 29.549,24 29,24ZM9.46,17C8.135,17.253 6.789,16.627 6.13,15.45C5.965,14.981 5.965,14.469 6.13,14C6.691,12.957 7.819,12.34 9,12.43L9.43,12.43C9.696,12.459 9.963,12.379 10.17,12.21C10.373,12.034 10.502,11.787 10.53,11.52C10.738,8.536 13.127,6.13 16.11,5.9C18.556,5.893 20.773,7.382 21.69,9.65C21.846,10.019 22.21,10.26 22.61,10.26C24.456,10.265 25.972,11.784 25.972,13.63C25.972,14.011 25.907,14.39 25.78,14.75C25.277,16.113 23.963,17.018 22.51,17L9.46,17ZM16,27C14.903,27 14,26.097 14,25C14,23.903 14.903,23 16,23C17.097,23 18,23.903 18,25C18,26.097 17.097,27 16,27Z" style="fill-rule:nonzero;"/>
        </g>
    </g>
</svg>
